# xmcd
#
# Track frame offsets:
#	150
#	11457
#	33868
#	50181
#	64086
#	79741
#	91983
#	111894
#	126109
#	141478
#	159386
#	174713
#	189610
#	206351
#	227179
#
# Disc length: 3272 seconds
#
# Revision: 0
# Processed by: cddbd v1.5.1PL2 Copyright (c) Steve Scherf et al.
# Submitted via: dBpowerAMP V4.0
#
DISCID=cd0cc60f
DTITLE=Darren Busby - Heart of Hearts
DYEAR=1900
DGENRE=Country
TTITLE0=Arms of Mary
TTITLE1=Heart of Heatts
TTITLE2=Horizontal Desire
TTITLE3=Fool For You Forever
TTITLE4=There's Not Much Love Here Anymore
TTITLE5=Runaway Hearts
TTITLE6=What Colour Is The Wind
TTITLE7=Batchelor Days
TTITLE8=Castaway Heart
TTITLE9=If I Can't Hold Her Tonight
TTITLE10=Yesterdays Love
TTITLE11=In A Letter To You
TTITLE12=Feel Free
TTITLE13=Your Love Amazes Me
TTITLE14=Batchelor Days (Extended Bonus Track)
EXTD=
EXTT0=
EXTT1=
EXTT2=
EXTT3=
EXTT4=
EXTT5=
EXTT6=
EXTT7=
EXTT8=
EXTT9=
EXTT10=
EXTT11=
EXTT12=
EXTT13=
EXTT14=
PLAYORDER=
